<svg width="124" height="57" viewBox="0 0 124 57" fill="none" xmlns="http://www.w3.org/2000/svg">
<path d="M8.45 49.15C7.15 49.15 5.9 48.6667 4.7 47.7C3.5 46.7667 2.46667 45.2167 1.6 43.05C1.3 42.2833 1.08333 41.4833 0.95 40.65C0.816667 39.8167 0.75 38.9833 0.75 38.15C0.75 36.7833 0.9 35.4167 1.2 34.05C1.5 32.6833 1.88333 31.4 2.35 30.2C2.71667 29.3333 3.23333 28.3667 3.9 27.3C4.56667 26.2 5.2 25.3 5.8 24.6C6 24.4 6.25 24.1833 6.55 23.95C6.85 23.6833 7.05 23.55 7.15 23.55C7.18333 23.55 7.2 23.5667 7.2 23.6C7.2 23.7 6.91667 24.1 6.35 24.8C4.98333 26.4667 3.96667 28.3667 3.3 30.5C2.66667 32.6 2.35 34.6833 2.35 36.75C2.35 37.9833 2.45 39.1667 2.65 40.3C2.88333 41.4333 3.18333 42.4833 3.55 43.45C4.25 45.2167 5 46.4833 5.8 47.25C6.63333 48.0167 7.5 48.4 8.4 48.4C9.53333 48.4 10.6833 47.9167 11.85 46.95C13.0167 45.9833 14.15 44.7 15.25 43.1C16.3833 41.5 17.4333 39.7667 18.4 37.9C19.3667 36.0333 20.2 34.1833 20.9 32.35C21.6333 30.4833 22.1667 28.8167 22.5 27.35L23.25 24.25C23.0833 24.2167 23 24.15 23 24.05C23 23.8833 23.1333 23.7167 23.4 23.55C23.8 21.75 24.1 19.9833 24.3 18.25C24.5333 16.5167 24.65 14.9167 24.65 13.45C24.65 11.85 24.5 10.45 24.2 9.25C23.9333 8.01667 23.4833 7.08333 22.85 6.45C22.5833 6.18333 22.2833 6.05 21.95 6.05C21.7167 6.05 21.4667 6.11667 21.2 6.25C20.9667 6.38333 20.7333 6.55 20.5 6.75C20.2667 6.98333 20.2333 6.93333 20.4 6.6C20.6 6.23333 20.9167 5.83333 21.35 5.4C21.8167 4.96666 22.3167 4.75 22.85 4.75C23.15 4.75 23.45 4.85 23.75 5.05C24.8167 5.78333 25.5667 6.9 26 8.4C26.4667 9.9 26.7 11.6333 26.7 13.6C26.7 14.9 26.6167 16.2667 26.45 17.7C26.2833 19.1333 26.05 20.6 25.75 22.1C25.8167 22.1667 25.8667 22.25 25.9 22.35C25.9667 22.45 26.0333 22.55 26.1 22.65C30.1333 21.35 33.3667 19.9667 35.8 18.5C38.2667 17.0333 40.05 15.55 41.15 14.05C42.2833 12.55 42.85 11.1167 42.85 9.75C42.85 8.31667 42.3167 7.03333 41.25 5.9C40.1833 4.76667 38.7167 3.86667 36.85 3.2C34.9833 2.53333 32.8333 2.2 30.4 2.2C28.1333 2.2 25.7833 2.51666 23.35 3.15C21.15 3.75 19.05 4.63333 17.05 5.8C15.0833 6.93333 13.3167 8.2 11.75 9.6C10.2167 11 8.96667 12.3833 8 13.75C7.06667 15.1167 6.53333 16.3167 6.4 17.35C6.33333 18.0833 6.2 18.6167 6 18.95C5.83333 19.2833 5.66667 19.45 5.5 19.45C5 19.45 4.75 18.85 4.75 17.65C4.75 17.4833 4.75 17.3167 4.75 17.15C4.78333 16.9833 4.81667 16.8167 4.85 16.65C5.05 15.15 5.71667 13.65 6.85 12.15C8.01667 10.65 9.48333 9.25 11.25 7.95C13.05 6.61666 15.0167 5.43333 17.15 4.4C19.2833 3.36667 21.4167 2.56666 23.55 2C24.9167 1.63333 26.25 1.36667 27.55 1.2C28.8833 1.03333 30.1667 0.949999 31.4 0.949999C34.1 0.949999 36.4833 1.31667 38.55 2.05C40.6167 2.78333 42.2333 3.78333 43.4 5.05C44.5667 6.28333 45.15 7.7 45.15 9.3C45.15 10.6333 44.65 12.05 43.65 13.55C42.65 15.05 41.05 16.55 38.85 18.05C36.65 19.55 33.75 21 30.15 22.4C29.4167 22.6667 28.75 22.9 28.15 23.1C27.5833 23.3 27.0667 23.4833 26.6 23.65C27.2667 24.85 28.1333 26.25 29.2 27.85C30.2667 29.45 31.4 31.0667 32.6 32.7C33.8333 34.3333 35.05 35.8167 36.25 37.15C37.45 38.4833 38.5333 39.5 39.5 40.2C40.1 40.6333 40.8 41.0667 41.6 41.5C42.4333 41.9667 43.2333 42.2 44 42.2C44.7667 42.2 45.35 41.9833 45.75 41.55C46.15 41.15 46.4333 40.6333 46.6 40C46.7667 39.3667 46.85 38.7333 46.85 38.1C46.85 35.9333 46.2167 33.9333 44.95 32.1C44.85 31.9333 44.8 31.8333 44.8 31.8C44.8 31.7 44.85 31.65 44.95 31.65C45.15 31.65 45.35 31.7833 45.55 32.05C46.2167 32.85 46.75 33.7833 47.15 34.85C47.55 35.9167 47.75 36.9833 47.75 38.05C47.75 39.6833 47.2667 41.05 46.3 42.15C45.3667 43.2833 44.0833 43.85 42.45 43.85C40.75 43.85 39.1667 43.3833 37.7 42.45C36.2667 41.5167 34.9333 40.2833 33.7 38.75C32.4667 37.2167 31.35 35.5667 30.35 33.8C29.35 32 28.4667 30.2333 27.7 28.5C26.9333 26.7667 26.2667 25.2333 25.7 23.9L25.35 24C24.8167 26.3 24.2 28.5333 23.5 30.7C22.8333 32.8667 22.1333 34.8333 21.4 36.6C20.5 38.8 19.3333 40.85 17.9 42.75C16.5 44.6833 14.9667 46.2333 13.3 47.4C11.6667 48.5667 10.05 49.15 8.45 49.15ZM51.916 37.65C50.716 37.65 49.666 36.95 48.766 35.55C47.8993 34.1167 47.466 31.8667 47.466 28.8C47.466 26.8 47.716 25.2 48.216 24C48.716 22.7667 49.3327 21.8667 50.066 21.3C50.7993 20.7333 51.4993 20.45 52.166 20.45C52.8327 20.45 53.3993 20.6833 53.866 21.15C54.3327 21.5833 54.566 22.2167 54.566 23.05C54.566 23.85 54.3327 24.7 53.866 25.6C53.3993 26.4667 52.8327 27.2667 52.166 28C51.5327 28.7 50.8993 29.1667 50.266 29.4C50.1327 29.4667 49.966 29.5 49.766 29.5C49.6327 29.5 49.566 29.45 49.566 29.35C49.566 29.0833 49.8327 28.7833 50.366 28.45C51.0327 27.9833 51.666 27.2833 52.266 26.35C52.866 25.3833 53.166 24.5333 53.166 23.8C53.166 23.3667 53.066 23.0333 52.866 22.8C52.666 22.5333 52.4327 22.4 52.166 22.4C51.666 22.4 51.116 22.8 50.516 23.6C49.9493 24.3667 49.5327 25.7 49.266 27.6C49.1993 28.1333 49.1327 28.65 49.066 29.15C49.0327 29.6167 49.016 30.0833 49.016 30.55C49.016 32.4167 49.2993 33.8833 49.866 34.95C50.4327 35.9833 51.1827 36.5 52.116 36.5C52.916 36.5 53.816 36.0333 54.816 35.1C55.816 34.1333 56.7993 32.6333 57.766 30.6C57.9993 30.0667 58.266 29.8 58.566 29.8C58.766 29.8 58.866 29.9333 58.866 30.2C58.866 30.4333 58.7993 30.6833 58.666 30.95C57.7993 33.0833 56.7493 34.7333 55.516 35.9C54.2827 37.0667 53.0827 37.65 51.916 37.65ZM59.1281 36.6C58.5281 36.6 58.0948 36.35 57.8281 35.85C57.5615 35.3167 57.4281 34.7 57.4281 34C57.4281 33.1 57.5781 32.05 57.8781 30.85C58.2115 29.65 58.6448 28.4167 59.1781 27.15C59.7115 25.85 60.3115 24.6667 60.9781 23.6C61.6781 22.5 62.4115 21.6167 63.1781 20.95C63.9448 20.25 64.6948 19.9 65.4281 19.9C66.0948 19.9 66.6615 20.2 67.1281 20.8C67.6281 21.3667 67.8781 22.0167 67.8781 22.75C67.8781 23.1833 67.8115 23.55 67.6781 23.85C67.5448 24.1167 67.3948 24.25 67.2281 24.25C67.0948 24.25 66.9781 24.15 66.8781 23.95C66.5448 23.1833 66.1781 22.6333 65.7781 22.3C65.4115 21.9667 65.0281 21.8 64.6281 21.8C63.9615 21.8 63.2948 22.1833 62.6281 22.95C61.9948 23.6833 61.4781 24.5333 61.0781 25.5C60.7448 26.2333 60.4281 27.1167 60.1281 28.15C59.8615 29.15 59.6281 30.15 59.4281 31.15C59.2615 32.1167 59.1781 32.9167 59.1781 33.55C59.1781 34.6833 59.4448 35.25 59.9781 35.25C60.6448 35.25 61.4948 34.5167 62.5281 33.05C63.2948 31.9833 63.9781 30.75 64.5781 29.35C65.2115 27.95 65.7448 26.7333 66.1781 25.7C66.3448 25.3667 66.5281 25.15 66.7281 25.05C66.9281 24.95 67.1115 24.9 67.2781 24.9C67.6781 24.9 67.9281 25.0667 68.0281 25.4C68.1615 25.7333 68.2281 26.0167 68.2281 26.25C68.2281 27.1167 68.1448 27.9 67.9781 28.6C67.8115 29.2667 67.7281 30.0833 67.7281 31.05C67.7281 31.75 67.7781 32.4 67.8781 33C68.0115 33.5667 68.2281 33.85 68.5281 33.85C68.8948 33.85 69.3615 33.3833 69.9281 32.45C70.0615 32.1833 70.2615 32.05 70.5281 32.05C70.8281 32.05 70.9781 32.2 70.9781 32.5C70.9781 32.9333 70.6781 33.4 70.0781 33.9C69.4781 34.3667 68.8781 34.6 68.2781 34.6C67.4781 34.6 66.9115 34.2667 66.5781 33.6C66.0115 32.5 65.7281 31.5167 65.7281 30.65C65.7281 29.75 65.7115 29.1333 65.6781 28.8C65.5115 29.2 65.1948 29.8333 64.7281 30.7C64.2615 31.5333 63.7115 32.4167 63.0781 33.35C62.4448 34.25 61.7781 35.0167 61.0781 35.65C60.3781 36.2833 59.7281 36.6 59.1281 36.6ZM71.6129 38.7C70.9796 38.7 70.5462 38.5167 70.3129 38.15C70.1796 37.95 70.1129 37.7333 70.1129 37.5C70.1129 37.2333 70.2296 36.9167 70.4629 36.55C70.6962 36.1833 71.1129 35.85 71.7129 35.55C71.7796 35.5167 72.0296 35.3667 72.4629 35.1C72.9296 34.8333 73.2129 34.6833 73.3129 34.65C73.1129 33.9167 72.7629 33.1833 72.2629 32.45C71.7629 31.6833 71.3129 30.8167 70.9129 29.85C70.5129 28.8833 70.3462 27.6833 70.4129 26.25C70.4796 24.8833 70.8462 23.7 71.5129 22.7C72.1796 21.7 73.0296 20.8833 74.0629 20.25C75.1296 19.6167 76.2296 19.1833 77.3629 18.95C77.6296 18.8833 77.9129 18.8333 78.2129 18.8C78.5129 18.7667 78.8129 18.75 79.1129 18.75C79.9462 18.75 80.6796 18.85 81.3129 19.05C81.9796 19.25 82.5462 19.5833 83.0129 20.05C83.5129 20.5167 83.7629 21.0333 83.7629 21.6C83.7629 21.9667 83.6462 22.3333 83.4129 22.7C83.3462 22.8333 83.2462 22.9667 83.1129 23.1C82.9796 23.2333 82.8129 23.3 82.6129 23.3C82.4796 23.3 82.4129 23.2 82.4129 23C82.4129 22.8333 82.4462 22.6167 82.5129 22.35C82.6129 22.0833 82.6796 21.9167 82.7129 21.85C82.7462 21.7833 82.7629 21.6667 82.7629 21.5C82.7629 21.1333 82.6629 20.8333 82.4629 20.6C82.2296 20.3 81.8629 20.1167 81.3629 20.05C80.8962 19.9833 80.4629 19.95 80.0629 19.95C78.8962 19.95 77.7462 20.2667 76.6129 20.9C75.4796 21.5333 74.4796 22.35 73.6129 23.35C72.7796 24.3167 72.1962 25.35 71.8629 26.45C71.7629 26.75 71.6962 27.05 71.6629 27.35C71.6296 27.6167 71.6129 27.8833 71.6129 28.15C71.6129 29.3167 71.8796 30.4333 72.4129 31.5C72.9462 32.5667 73.4129 33.55 73.8129 34.45C74.7462 33.95 75.5796 33.6 76.3129 33.4C76.4129 33.3667 76.4962 33.35 76.5629 33.35C76.6629 33.35 76.7296 33.35 76.7629 33.35C76.9296 33.35 77.0129 33.4 77.0129 33.5C77.0129 33.6667 76.7962 33.8333 76.3629 34C76.2629 34.0333 76.0129 34.1333 75.6129 34.3C75.2129 34.4667 74.7296 34.7 74.1629 35C74.3296 35.4333 74.4129 35.85 74.4129 36.25C74.4129 36.65 74.3129 37.0333 74.1129 37.4C73.9129 37.7667 73.5629 38.0667 73.0629 38.3C72.5629 38.5667 72.0796 38.7 71.6129 38.7ZM71.7629 37.35C71.7962 37.5833 71.9462 37.6333 72.2129 37.5C72.5129 37.3667 72.8129 37.1333 73.1129 36.8C73.4129 36.4667 73.5629 36.1333 73.5629 35.8C73.5629 35.7333 73.5629 35.6667 73.5629 35.6C73.5962 35.5 73.5962 35.4 73.5629 35.3C73.0629 35.6 72.6296 35.9333 72.2629 36.3C71.8962 36.6333 71.7296 36.9833 71.7629 37.35ZM83.1211 56.65C81.8211 56.65 80.7711 56.3 79.9711 55.6C79.1711 54.9333 78.7711 54.0333 78.7711 52.9C78.7711 51.9 79.0544 50.9 79.6211 49.9C80.1544 48.9333 80.8211 48 81.6211 47.1C82.4544 46.2333 83.2878 45.4667 84.1211 44.8C85.5878 43.6333 87.3211 42.5333 89.3211 41.5C91.3544 40.4667 93.6378 39.6833 96.1711 39.15C96.2044 38.7833 96.2211 38.4 96.2211 38C96.2211 37.6333 96.2211 37.2667 96.2211 36.9C96.2211 34.2 96.0378 31.75 95.6711 29.55C95.3044 27.3167 94.8878 25.4 94.4211 23.8C93.0878 27.1 91.9044 29.85 90.8711 32.05C89.8378 34.2167 89.2711 36.0333 89.1711 37.5C89.1378 37.7333 88.9878 37.9833 88.7211 38.25C88.4878 38.55 88.2211 38.7 87.9211 38.7C87.7211 38.7 87.5211 38.5833 87.3211 38.35C87.1544 38.15 87.0378 37.7833 86.9711 37.25C86.9711 37.1167 86.9544 36.9333 86.9211 36.7C86.9211 36.4667 86.9211 36.05 86.9211 35.45C86.9211 34.85 86.9211 33.95 86.9211 32.75C86.9211 31.6833 86.8878 30.6 86.8211 29.5C86.7878 28.3667 86.6711 27.3167 86.4711 26.35C86.2711 25.3833 85.9711 24.6 85.5711 24C85.2044 23.4 84.6878 23.1 84.0211 23.1C83.4878 23.1 82.9878 23.3 82.5211 23.7C82.0878 24.1 81.7211 24.5 81.4211 24.9C81.1211 25.2667 80.8878 25.45 80.7211 25.45C80.5878 25.45 80.5211 25.4 80.5211 25.3C80.5211 25.2333 80.5711 25.1333 80.6711 25C80.7378 24.8333 80.8044 24.7 80.8711 24.6C81.1711 24.1667 81.5544 23.7333 82.0211 23.3C82.5211 22.8667 83.0378 22.5 83.5711 22.2C84.1378 21.8667 84.6378 21.7 85.0711 21.7C85.9711 21.7 86.6711 22.1667 87.1711 23.1C87.6711 24 88.0211 25.15 88.2211 26.55C88.4544 27.95 88.5711 29.3833 88.5711 30.85C88.5711 31.4833 88.5378 32.25 88.4711 33.15C88.4044 34.05 88.3211 34.8167 88.2211 35.45C88.8878 34.2167 89.7378 32.5 90.7711 30.3C91.8044 28.1 92.9378 25.6167 94.1711 22.85L93.7211 21.55V21.4C93.7211 21.0667 93.8211 20.8167 94.0211 20.65C94.2544 20.4833 94.4878 20.4 94.7211 20.4C94.9211 20.4 95.1211 20.45 95.3211 20.55C95.5211 20.65 95.6544 20.8 95.7211 21C96.1211 21.9 96.4544 23.1333 96.7211 24.7C97.0211 26.2667 97.2378 27.9667 97.3711 29.8C97.5378 31.6 97.6211 33.3833 97.6211 35.15C97.6211 36.4833 97.5711 37.7333 97.4711 38.9C98.3044 38.7333 99.1878 38.6 100.121 38.5C101.088 38.4 101.921 38.35 102.621 38.35C103.054 38.35 103.271 38.4167 103.271 38.55C103.271 38.8167 102.921 38.9833 102.221 39.05C101.421 39.1167 100.604 39.2 99.7711 39.3C98.9711 39.4333 98.1544 39.6 97.3211 39.8C96.6211 43.6333 95.5211 46.7 94.0211 49C92.5544 51.3333 91.0378 53.0833 89.4711 54.25C88.3378 55.0833 87.2211 55.6833 86.1211 56.05C85.0544 56.45 84.0544 56.65 83.1211 56.65ZM82.7211 55.6C83.2878 55.6 83.9378 55.4833 84.6711 55.25C85.4378 55.0167 86.2378 54.65 87.0711 54.15C89.7378 52.5833 91.8044 50.6 93.2711 48.2C94.7378 45.8333 95.6711 43.1333 96.0711 40.1C94.1044 40.6333 92.1211 41.4 90.1211 42.4C88.1544 43.4333 86.3544 44.6333 84.7211 46C83.9878 46.6333 83.2544 47.35 82.5211 48.15C81.8211 48.95 81.2378 49.7667 80.7711 50.6C80.3044 51.4667 80.0711 52.3 80.0711 53.1C80.0711 53.8667 80.3044 54.4667 80.7711 54.9C81.2378 55.3667 81.8878 55.6 82.7211 55.6ZM99.8609 53.3C99.3609 53.3 98.9609 52.9667 98.6609 52.3C98.3609 51.6667 98.1443 50.9 98.0109 50C97.8443 49.1 97.7609 48.2667 97.7609 47.5C97.7609 47.1333 97.7776 46.6 97.8109 45.9C97.8443 45.2 97.8943 44.45 97.9609 43.65C98.0276 42.85 98.0943 42.1 98.1609 41.4C98.2276 40.7 98.2776 40.1667 98.3109 39.8C98.6109 37.5333 99.0609 35.35 99.6609 33.25C100.261 31.1167 100.911 29.0333 101.611 27C101.644 26.9333 101.678 26.8333 101.711 26.7C101.778 26.5667 101.828 26.5 101.861 26.5V26.35C101.528 26.4833 101.094 26.8 100.561 27.3C100.061 27.8 99.6943 28.1833 99.4609 28.45C99.2276 28.6833 99.0109 28.9333 98.8109 29.2C98.6109 29.4333 98.3776 29.55 98.1109 29.55C97.8443 29.55 97.7109 29.4 97.7109 29.1C97.7109 28.7333 97.9109 28.3667 98.3109 28C98.6776 27.6 99.0943 27.2333 99.5609 26.9C100.028 26.5333 100.528 26.2 101.061 25.9C101.628 25.6 102.028 25.3833 102.261 25.25C102.361 25.1833 102.428 25.1 102.461 25C102.528 24.9 102.578 24.8 102.611 24.7C102.844 24.3333 103.078 23.9833 103.311 23.65C103.578 23.3167 103.928 23.0833 104.361 22.95C104.661 22.9833 104.994 23.05 105.361 23.15C105.728 23.25 105.944 23.4833 106.011 23.85C106.011 23.9833 106.044 24.05 106.111 24.05V24.1C106.278 24.1 106.478 24.0833 106.711 24.05C106.978 23.9833 107.278 23.95 107.611 23.95C108.911 23.95 109.961 24.2833 110.761 24.95C111.561 25.6167 111.961 26.5 111.961 27.6C111.961 28.6333 111.661 29.75 111.061 30.95C110.461 32.1167 109.811 33.0667 109.111 33.8C108.011 34.9 106.844 35.8667 105.611 36.7C104.411 37.5 103.378 37.9 102.511 37.9C101.978 37.9 101.611 37.75 101.411 37.45C101.244 37.1833 101.161 36.85 101.161 36.45C101.161 35.8833 101.411 35.3167 101.911 34.75C102.411 34.1833 102.911 33.7 103.411 33.3C103.978 32.8333 104.561 32.4 105.161 32C105.794 31.6 106.328 31.2667 106.761 31C106.994 30.8333 107.211 30.6833 107.411 30.55C107.644 30.4167 107.844 30.35 108.011 30.35C108.111 30.35 108.161 30.4 108.161 30.5C108.161 30.5667 107.961 30.7333 107.561 31C107.194 31.2667 106.878 31.5 106.611 31.7C106.411 31.8667 106.061 32.1667 105.561 32.6C105.061 33 104.528 33.4667 103.961 34C103.428 34.5 102.961 35.0167 102.561 35.55C102.161 36.0833 101.961 36.55 101.961 36.95C102.494 36.95 103.078 36.7333 103.711 36.3C104.378 35.8333 105.028 35.3 105.661 34.7C106.328 34.1 106.894 33.6 107.361 33.2C107.794 32.8 108.311 32.25 108.911 31.55C109.511 30.85 110.044 30.1 110.511 29.3C110.978 28.5 111.211 27.7667 111.211 27.1C111.211 26.2333 110.878 25.6 110.211 25.2C109.578 24.7667 108.811 24.55 107.911 24.55C107.611 24.55 107.228 24.5833 106.761 24.65C106.294 24.7167 106.011 24.7833 105.911 24.85C105.178 25.9833 104.478 27.1333 103.811 28.3C103.144 29.4667 102.528 30.6667 101.961 31.9C101.028 33.9 100.278 35.9333 99.7109 38C99.1776 40.0667 98.8276 42.3 98.6609 44.7C98.6276 45.2667 98.5776 45.8667 98.5109 46.5C98.4776 47.1333 98.4776 47.7667 98.5109 48.4C98.5443 48.7333 98.6109 49.2667 98.7109 50C98.8109 50.7333 98.9776 51.4 99.2109 52C99.4443 52.6 99.7609 52.9 100.161 52.9C100.194 52.9 100.261 52.9 100.361 52.9C100.461 52.9 100.511 52.9167 100.511 52.95V53.1C100.278 53.2333 100.061 53.3 99.8609 53.3ZM116.809 37.65C115.609 37.65 114.559 36.95 113.659 35.55C112.792 34.1167 112.359 31.8667 112.359 28.8C112.359 26.8 112.609 25.2 113.109 24C113.609 22.7667 114.225 21.8667 114.959 21.3C115.692 20.7333 116.392 20.45 117.059 20.45C117.725 20.45 118.292 20.6833 118.759 21.15C119.225 21.5833 119.459 22.2167 119.459 23.05C119.459 23.85 119.225 24.7 118.759 25.6C118.292 26.4667 117.725 27.2667 117.059 28C116.425 28.7 115.792 29.1667 115.159 29.4C115.025 29.4667 114.859 29.5 114.659 29.5C114.525 29.5 114.459 29.45 114.459 29.35C114.459 29.0833 114.725 28.7833 115.259 28.45C115.925 27.9833 116.559 27.2833 117.159 26.35C117.759 25.3833 118.059 24.5333 118.059 23.8C118.059 23.3667 117.959 23.0333 117.759 22.8C117.559 22.5333 117.325 22.4 117.059 22.4C116.559 22.4 116.009 22.8 115.409 23.6C114.842 24.3667 114.425 25.7 114.159 27.6C114.092 28.1333 114.025 28.65 113.959 29.15C113.925 29.6167 113.909 30.0833 113.909 30.55C113.909 32.4167 114.192 33.8833 114.759 34.95C115.325 35.9833 116.075 36.5 117.009 36.5C117.809 36.5 118.709 36.0333 119.709 35.1C120.709 34.1333 121.692 32.6333 122.659 30.6C122.892 30.0667 123.159 29.8 123.459 29.8C123.659 29.8 123.759 29.9333 123.759 30.2C123.759 30.4333 123.692 30.6833 123.559 30.95C122.692 33.0833 121.642 34.7333 120.409 35.9C119.175 37.0667 117.975 37.65 116.809 37.65Z" fill="black"/>
</svg>
